<?xml version="1.0" standalone="no"?>
<!DOCTYPE svg PUBLIC "-//W3C//DTD SVG 20010904//EN"
 "http://www.w3.org/TR/2001/REC-SVG-20010904/DTD/svg10.dtd">
<svg version="1.0" xmlns="http://www.w3.org/2000/svg"
 width="1183.000000pt" height="1183.000000pt" viewBox="0 0 1183.000000 1183.000000"
 preserveAspectRatio="xMidYMid meet">
<metadata>
Created by potrace 1.16, written by Peter Selinger 2001-2019
</metadata>
<g transform="translate(0.000000,1183.000000) scale(0.100000,-0.100000)"
fill="#656d80" stroke="none">
<path d="M5335 11234 c-127 -14 -175 -21 -181 -27 -2 -2 16 -100 39 -218 l44
-214 34 0 c19 1 63 4 99 8 36 4 100 10 144 13 l79 7 -7 86 c-3 47 -9 148 -12
224 l-7 138 -61 -3 c-34 -1 -110 -7 -171 -14z"/>
<path d="M6550 11214 c0 -5 -12 -103 -26 -217 -14 -115 -24 -210 -21 -213 2
-2 62 -13 133 -24 71 -10 143 -22 160 -25 31 -7 31 -6 42 47 6 29 25 121 42
203 17 83 33 157 36 166 5 18 -12 23 -146 45 -25 4 -52 9 -60 11 -40 10 -160
15 -160 7z"/>
<path d="M4829 11155 c-4 -4 -128 -33 -253 -60 -38 -9 -203 -57 -281 -83 -44
-14 -83 -27 -87 -28 -5 -1 -9 -2 -10 -4 -2 -1 -12 -3 -23 -5 -18 -4 -51 -16
-132 -51 -17 -8 -44 -17 -60 -20 -15 -3 -36 -11 -45 -18 -19 -14 -22 -4 114
-328 l40 -96 37 13 c20 7 92 34 161 59 137 51 385 123 554 161 59 13 110 26
113 28 2 2 -16 101 -39 218 -39 190 -46 214 -64 217 -11 2 -22 0 -25 -3z"/>
<path d="M7160 10951 c-18 -86 -38 -183 -45 -216 -8 -33 -12 -61 -11 -63 2 -1
45 -14 96 -28 194 -51 440 -138 632 -221 60 -26 110 -45 112 -42 2 2 49 92
105 200 104 202 104 202 61 214 -3 0 -34 15 -70 31 -36 17 -83 37 -105 44 -22
7 -46 17 -52 23 -7 5 -13 7 -13 3 0 -4 -13 0 -28 8 -33 17 -123 50 -212 77
-36 11 -69 22 -75 23 -5 2 -12 4 -15 4 -3 0 -23 7 -45 16 -50 19 -160 51 -241
69 l-61 15 -33 -157z"/>
<path d="M8393 10638 c-6 -7 -53 -97 -106 -200 l-97 -186 88 -49 c48 -26 91
-50 95 -52 5 -2 32 -18 60 -37 28 -19 56 -34 62 -34 5 0 66 82 134 182 l124
181 -34 29 c-19 15 -44 31 -56 34 -13 3 -23 10 -23 16 0 5 -4 6 -10 3 -5 -3
-10 -2 -10 2 0 5 -19 19 -42 31 -24 12 -70 38 -103 57 -69 39 -69 39 -82 23z"/>
<path d="M2985 10393 c-22 -15 -46 -33 -53 -40 -7 -7 -17 -13 -21 -13 -7 0
-59 -37 -98 -70 -7 -5 -17 -10 -22 -10 -6 0 -15 -8 -20 -17 -6 -10 -11 -14
-11 -9 0 5 -9 -1 -20 -14 -11 -13 -20 -19 -20 -14 0 5 -4 2 -9 -5 -10 -15 4
-41 46 -86 10 -11 36 -43 58 -70 21 -28 42 -52 45 -55 3 -3 31 -38 63 -77 32
-40 60 -73 63 -73 4 0 25 13 48 28 76 53 251 174 255 177 6 7 -243 375 -254
375 -6 0 -28 -12 -50 -27z"/>
<path d="M2429 9973 c-44 -38 -100 -89 -190 -174 -27 -26 -49 -51 -49 -57 0
-6 70 -82 156 -168 l155 -157 47 45 c78 76 125 118 170 155 23 20 42 39 42 43
0 6 -115 157 -129 170 -4 3 -38 44 -76 92 -39 49 -73 88 -76 88 -3 0 -25 -17
-50 -37z"/>
<path d="M9399 9689 c-79 -84 -147 -157 -151 -163 -4 -7 53 -72 135 -156 149
-153 181 -187 262 -285 28 -33 55 -65 60 -71 6 -6 21 -26 35 -44 14 -18 33
-42 43 -54 10 -11 26 -34 35 -49 10 -16 23 -26 32 -24 9 2 96 56 193 120 l178
117 -15 27 c-8 16 -24 38 -35 50 -12 12 -21 25 -21 28 0 3 -18 24 -40 47 -22
24 -40 47 -40 52 0 5 -19 30 -42 55 -24 26 -68 75 -98 110 -65 75 -373 391
-381 391 -3 0 -71 -68 -150 -151z"/>
<path d="M1512 8958 c-7 -7 -12 -18 -12 -25 0 -7 -4 -13 -10 -13 -5 0 -10 -6
-10 -13 0 -8 -9 -22 -20 -32 -11 -10 -20 -24 -20 -32 0 -7 -3 -13 -7 -13 -5 0
-17 -18 -27 -40 -11 -22 -23 -40 -28 -40 -4 0 -8 -5 -8 -11 0 -6 -13 -31 -29
-55 -17 -24 -27 -45 -23 -48 11 -6 125 -67 247 -131 61 -32 114 -62 120 -66
22 -21 45 -6 84 57 22 36 41 67 41 70 0 7 83 128 93 135 5 4 3 12 -5 18 -32
28 -356 251 -365 251 -5 0 -14 -5 -21 -12z"/>
<path d="M10192 8730 c-101 -67 -182 -127 -182 -135 0 -8 4 -15 9 -15 5 0 11
-6 13 -13 5 -22 152 -267 161 -267 7 0 398 187 405 195 4 4 -28 66 -39 75 -3
3 -25 41 -49 85 -24 44 -47 82 -51 83 -5 2 -9 8 -9 14 0 5 -11 24 -25 42 -14
18 -25 38 -25 44 0 24 -30 9 -208 -108z"/>
<path d="M1119 8283 c-28 -60 -59 -126 -69 -148 -10 -22 -29 -65 -43 -95 -13
-30 -28 -66 -32 -80 -4 -14 -16 -41 -26 -60 -11 -19 -19 -40 -19 -47 0 -6 -11
-38 -24 -70 -45 -110 -99 -284 -90 -292 5 -4 32 -13 59 -19 28 -7 124 -31 215
-54 l165 -43 29 85 c76 227 143 392 238 590 l60 124 -22 16 c-13 8 -57 33 -99
55 -42 23 -120 64 -173 93 -54 29 -102 52 -107 52 -6 0 -33 -48 -62 -107z"/>
<path d="M10513 8145 c-106 -52 -193 -96 -193 -98 0 -3 20 -47 44 -98 77 -166
180 -440 236 -628 16 -58 31 -106 33 -107 2 -1 200 47 410 99 34 9 34 24 1
124 -14 43 -27 86 -29 95 -3 15 -31 98 -53 158 -3 8 -7 24 -9 34 -2 11 -8 25
-14 32 -5 6 -12 20 -14 30 -4 20 -42 117 -56 146 -5 10 -9 22 -9 26 0 5 -15
42 -34 83 -19 41 -35 77 -35 81 -3 22 -61 113 -73 115 -7 1 -100 -40 -205 -92z"/>
<path d="M4920 7340 l0 -220 420 0 420 0 0 220 0 220 -420 0 -420 0 0 -220z"/>
<path d="M6040 7340 l0 -220 355 -2 c195 -1 381 -2 413 -3 l57 0 3 223 2 222
-415 0 -415 0 0 -220z"/>
<path d="M727 7213 c-4 -7 -17 -73 -18 -88 0 -2 -5 -19 -10 -37 -5 -18 -12
-49 -15 -68 -3 -19 -10 -55 -16 -80 -19 -85 -18 -83 -32 -175 -2 -11 -6 -33
-9 -50 -6 -30 -11 -69 -22 -175 -3 -30 -8 -66 -10 -80 -2 -14 -7 -69 -10 -122
l-7 -98 84 0 c47 0 153 -3 235 -7 l151 -6 7 84 c12 150 34 334 55 450 21 124
21 125 49 249 10 47 17 88 15 91 -2 4 -14 9 -26 11 -24 5 -370 95 -400 104 -9
3 -18 1 -21 -3z"/>
<path d="M10917 6995 c-115 -29 -211 -55 -213 -58 -3 -3 8 -85 25 -183 33
-201 49 -348 59 -539 l7 -130 234 -3 233 -2 -6 117 c-9 148 -29 380 -41 453
-3 14 -9 57 -15 95 -6 39 -13 79 -15 90 -2 11 -11 58 -20 105 -17 97 -21 111
-32 109 -4 -1 -102 -25 -216 -54z"/>
<path d="M574 5745 c3 -121 9 -243 12 -270 3 -28 12 -104 19 -170 8 -66 17
-142 20 -170 3 -27 10 -72 15 -100 5 -27 12 -66 15 -85 4 -19 10 -53 15 -75 5
-22 12 -56 15 -75 3 -19 10 -48 15 -65 5 -16 11 -41 14 -55 8 -40 14 -66 35
-140 7 -25 15 -52 17 -60 15 -61 51 -179 82 -270 16 -47 37 -107 47 -135 18
-54 24 -70 49 -127 9 -20 16 -39 16 -43 0 -4 13 -35 29 -68 15 -34 32 -73 36
-87 4 -13 22 -54 40 -90 18 -36 43 -85 55 -110 12 -25 34 -67 49 -95 15 -27
45 -84 66 -125 21 -41 48 -89 61 -106 13 -17 20 -34 17 -38 -4 -3 -2 -6 3 -6
5 0 21 -21 34 -47 14 -27 27 -50 30 -53 16 -16 60 -88 60 -98 0 -7 4 -12 8
-12 4 0 16 -15 27 -32 10 -18 21 -35 24 -38 3 -3 20 -25 36 -50 17 -25 33 -47
38 -48 4 -2 7 -10 7 -18 0 -8 7 -17 15 -20 8 -4 15 -13 15 -20 0 -8 7 -17 15
-20 8 -4 15 -11 15 -16 0 -6 15 -28 33 -48 17 -21 79 -95 137 -166 58 -70 133
-157 167 -193 l63 -66 79 79 c89 89 81 92 105 -44 17 -95 61 -321 76 -390 5
-25 12 -61 15 -80 3 -19 21 -114 40 -210 19 -96 37 -193 40 -215 4 -22 10 -56
15 -75 5 -19 12 -48 14 -65 16 -91 34 -177 38 -180 4 -4 19 15 106 140 19 28
39 52 44 53 4 2 8 9 8 17 0 7 7 19 16 26 9 7 39 47 67 89 74 109 119 165 129
162 13 -3 71 -45 79 -55 3 -5 9 -8 13 -8 9 1 114 -67 121 -79 4 -6 11 -8 16
-5 5 4 9 1 9 -4 0 -6 7 -11 15 -11 8 0 15 -4 15 -10 0 -5 5 -10 12 -10 6 0 25
-10 42 -23 17 -12 56 -35 86 -51 30 -16 66 -37 80 -46 33 -22 381 -193 398
-196 8 -1 20 14 28 34 8 20 19 46 24 57 5 11 25 61 45 110 20 50 40 99 45 110
27 60 52 126 49 129 -2 2 -65 34 -139 70 -143 69 -182 90 -325 174 -108 63
-305 189 -322 206 -10 9 1 30 52 101 35 50 74 105 87 123 13 18 30 41 38 51 8
11 22 29 30 41 8 13 24 35 35 49 11 14 26 35 33 46 7 11 21 33 32 50 10 16 18
31 15 33 -4 4 -489 10 -915 11 l-284 1 66 67 67 68 -52 55 c-78 82 -204 231
-294 350 -103 135 -238 336 -294 437 -8 15 -41 71 -72 125 -65 112 -198 384
-252 513 -20 50 -43 104 -50 120 -62 144 -183 557 -224 768 -58 298 -85 526
-97 839 l-7 177 -235 3 -235 3 7 -220z"/>
<path d="M10735 5143 c-25 -176 -105 -506 -170 -707 -19 -60 -35 -113 -35
-117 0 -8 24 -20 195 -99 39 -18 103 -48 143 -66 40 -19 77 -32 81 -29 9 5 64
156 77 210 8 33 8 34 17 55 3 8 8 26 11 40 3 14 17 68 31 120 14 52 28 109 31
125 3 17 10 44 15 62 6 17 12 42 14 55 10 49 14 70 19 86 13 42 35 227 29 233
-5 4 -96 21 -203 39 -107 17 -207 34 -221 37 -25 5 -27 2 -34 -44z"/>
<path d="M10391 3978 c-82 -177 -123 -260 -173 -353 -59 -107 -63 -116 -150
-260 -56 -91 -69 -125 -49 -125 5 0 16 -6 23 -13 7 -7 40 -33 73 -57 33 -24
65 -49 72 -54 6 -6 50 -39 97 -74 73 -55 87 -62 105 -52 12 6 21 17 21 25 0 8
5 15 10 15 6 0 10 6 10 13 0 8 17 38 38 69 45 66 54 82 105 178 22 41 47 86
56 100 15 22 46 85 97 195 8 17 19 37 24 45 12 18 51 106 51 117 0 5 5 13 10
19 5 6 15 29 23 51 l14 41 -81 37 c-276 128 -335 155 -339 155 -2 0 -19 -33
-37 -72z"/>
<path d="M9799 2972 c-48 -65 -164 -207 -194 -238 -11 -11 -32 -36 -48 -55
-15 -19 -91 -98 -170 -177 -80 -80 -138 -146 -132 -150 6 -4 51 -52 100 -107
50 -55 99 -109 110 -121 11 -11 39 -42 63 -67 l43 -47 132 133 c120 123 185
192 278 301 19 22 42 48 52 58 9 10 17 21 17 24 0 3 6 11 13 18 6 7 23 28 37
46 14 18 35 44 48 56 12 13 22 28 22 33 0 6 6 14 13 18 6 4 17 18 24 29 11 20
5 26 -75 85 -48 34 -91 67 -97 71 -5 5 -51 40 -101 78 l-92 70 -43 -58z"/>
<path d="M8436 1754 c-49 -31 -111 -67 -137 -80 l-47 -25 106 -207 c58 -114
110 -210 115 -214 6 -3 31 7 57 23 26 16 52 29 59 29 6 0 11 4 11 9 0 5 9 13
20 16 11 3 42 21 69 38 26 18 62 41 78 51 l30 19 -76 119 c-42 66 -98 155
-126 199 -27 43 -54 79 -60 78 -5 0 -50 -25 -99 -55z"/>
<path d="M7960 1502 c-19 -10 -80 -37 -135 -61 -55 -24 -101 -45 -102 -46 -2
-1 48 -147 127 -372 30 -84 30 -84 70 -66 19 9 37 17 40 18 25 9 55 22 115 50
39 19 87 40 108 49 20 8 37 18 37 22 0 12 -213 424 -219 424 -3 -1 -22 -9 -41
-18z"/>
<path d="M4149 1323 c-11 -26 -24 -57 -29 -68 -5 -11 -25 -60 -45 -110 -20
-49 -42 -103 -49 -120 -14 -31 -28 -72 -32 -91 -2 -10 81 -45 141 -59 18 -4
32 -9 90 -31 11 -4 26 -8 32 -10 7 -1 32 -9 55 -17 71 -26 172 -56 208 -62 18
-3 37 -8 42 -11 9 -6 24 -9 118 -29 36 -8 90 -21 120 -29 52 -14 69 -17 167
-32 41 -6 42 -6 47 27 4 19 20 113 36 209 16 96 32 187 35 202 5 32 3 34 -50
42 -22 4 -71 13 -110 21 -244 52 -263 57 -540 148 -104 34 -195 63 -202 65 -8
2 -22 -16 -34 -45z"/>
<path d="M7340 1266 c-58 -19 -124 -39 -148 -45 -26 -8 -42 -17 -39 -24 2 -7
23 -79 46 -162 22 -82 48 -173 56 -201 8 -28 15 -59 15 -69 0 -15 5 -16 33
-10 42 9 44 9 97 25 178 51 210 62 210 68 0 4 -20 70 -44 147 -25 77 -55 176
-68 220 -15 50 -29 81 -38 82 -8 1 -62 -13 -120 -31z"/>
<path d="M5304 874 c-32 -220 -32 -265 -1 -270 35 -5 175 -16 297 -24 97 -6
625 -4 699 2 10 1 12 15 8 62 -4 34 -12 142 -18 241 l-12 180 -276 -3 c-242
-4 -546 8 -636 24 l-30 5 -31 -217z"/>
</g>
</svg>
