<?xml version="1.0" standalone="no"?>
<!DOCTYPE svg PUBLIC "-//W3C//DTD SVG 20010904//EN"
 "http://www.w3.org/TR/2001/REC-SVG-20010904/DTD/svg10.dtd">
<svg version="1.0" xmlns="http://www.w3.org/2000/svg"
 width="2048.000000pt" height="2048.000000pt" viewBox="0 0 2048.000000 2048.000000"
 preserveAspectRatio="xMidYMid meet">
<metadata>
Created by potrace 1.16, written by Peter Selinger 2001-2019
</metadata>
<g transform="translate(0.000000,2048.000000) scale(0.100000,-0.100000)"
fill="#656d80" stroke="none">
<path d="M2 19638 l3 -843 63 -140 c35 -77 82 -187 103 -245 22 -58 54 -140
71 -183 45 -114 500 -1025 680 -1362 85 -159 195 -366 243 -460 125 -241 247
-462 325 -590 99 -162 186 -308 245 -410 54 -95 138 -226 268 -420 43 -64 112
-176 154 -248 41 -73 92 -154 113 -182 21 -27 84 -117 139 -200 113 -168 228
-330 363 -514 50 -69 103 -145 117 -170 22 -41 137 -201 209 -291 16 -19 64
-84 107 -145 71 -99 162 -211 525 -650 562 -678 725 -870 954 -1125 152 -167
404 -434 415 -438 7 -2 418 408 731 731 162 166 153 164 169 42 5 -33 49 -303
99 -600 99 -584 208 -1260 351 -2165 105 -661 116 -728 181 -1060 113 -570
182 -941 230 -1230 12 -69 41 -208 65 -310 24 -102 60 -275 80 -385 81 -455
144 -745 166 -771 10 -12 15 -12 32 3 37 33 138 165 162 214 14 26 74 114 133
196 60 81 143 199 186 261 42 63 103 148 135 190 32 42 86 118 121 167 35 50
121 163 192 251 71 89 168 220 217 290 161 233 175 253 307 432 153 208 275
342 310 342 32 0 118 -52 280 -171 76 -56 177 -125 224 -152 47 -28 137 -85
200 -127 63 -42 185 -121 270 -175 85 -54 220 -142 300 -195 170 -113 287
-186 326 -200 15 -6 75 -39 133 -74 58 -35 192 -111 296 -169 105 -58 255
-143 334 -191 151 -90 760 -399 1351 -686 392 -190 557 -264 610 -274 l35 -6
37 73 c40 79 174 391 275 642 35 88 93 228 128 310 189 445 453 1076 457 1094
4 19 -55 50 -1002 519 -493 245 -652 331 -1170 635 -356 209 -521 309 -790
479 -436 274 -818 527 -859 569 -17 17 -31 40 -31 52 0 58 64 160 362 582 313
445 334 473 472 658 71 94 154 208 184 252 31 44 111 155 179 247 119 161 310
452 362 552 23 45 24 49 8 61 -26 18 -488 25 -2922 40 -1296 8 -2674 9 -2835
1 l-145 -7 236 233 c129 128 290 284 357 347 67 63 122 118 122 123 0 5 -35
46 -78 91 -236 248 -297 314 -402 432 -325 366 -678 788 -955 1140 -381 485
-676 894 -1083 1505 -268 401 -386 590 -582 930 -84 146 -213 370 -287 498
-185 323 -299 538 -547 1032 -372 742 -579 1191 -830 1795 -68 165 -133 321
-145 348 l-20 47 -911 0 -910 0 2 -842z"/>
<path d="M15450 6779 c0 -7 -35 -97 -79 -199 -138 -323 -209 -496 -349 -840
-63 -157 -145 -358 -212 -520 -178 -433 -203 -499 -207 -541 l-3 -46 202 -81
c246 -98 852 -301 1583 -531 343 -107 549 -167 761 -220 66 -17 172 -47 235
-66 224 -71 486 -135 807 -200 180 -36 350 -72 377 -80 198 -56 785 -155 917
-155 65 0 61 -6 83 116 8 43 23 129 34 189 27 148 140 814 152 895 5 36 18
115 29 175 11 61 33 191 50 290 17 99 44 254 60 345 16 91 32 195 36 233 7 66
6 67 -17 67 -87 -1 -1141 210 -1579 315 -85 21 -166 40 -180 43 -48 9 -456
121 -555 152 -55 18 -116 36 -135 42 -19 5 -251 80 -515 165 -1470 477 -1495
485 -1495 452z"/>
</g>
</svg>
